<svg width="1200" height="900" viewBox="0 0 1200 900" xmlns="http://www.w3.org/2000/svg">
  <defs>
    <linearGradient id="bg" x1="0" y1="0" x2="1" y2="1">
      <stop offset="0%" stop-color="#090b11"/>
      <stop offset="100%" stop-color="#191d2a"/>
    </linearGradient>
    <linearGradient id="accent" x1="0" y1="0" x2="1" y2="0">
      <stop offset="0%" stop-color="#ffb35b"/>
      <stop offset="100%" stop-color="#6ce7ff"/>
    </linearGradient>
  </defs>
  <rect width="1200" height="900" fill="url(#bg)"/>
  <rect x="56" y="56" width="1088" height="788" rx="28" fill="none" stroke="#31384d" stroke-width="4"/>
  <rect x="748" y="228" width="186" height="292" rx="30" fill="#101625" stroke="#6ce7ff" stroke-width="8"/>
  <circle cx="842" cy="286" r="24" fill="#6ce7ff"/>
  <rect x="788" y="338" width="108" height="108" rx="18" fill="#1b2335"/>
  <path d="M205 620C205 523 279 450 378 450C477 450 551 523 551 620" fill="#151b29" stroke="#ffb35b" stroke-width="10"/>
  <circle cx="308" cy="364" r="56" fill="#151b29" stroke="#ffb35b" stroke-width="10"/>
  <circle cx="447" cy="364" r="56" fill="#151b29" stroke="#ffb35b" stroke-width="10"/>
  <circle cx="353" cy="563" r="10" fill="#ffb35b"/>
  <circle cx="404" cy="563" r="10" fill="#ffb35b"/>
  <path d="M354 611C372 629 388 629 406 611" fill="none" stroke="#ffb35b" stroke-width="8" stroke-linecap="round"/>
  <ellipse cx="520" cy="692" rx="124" ry="42" fill="#0b0e15" stroke="#ffb35b" stroke-width="8"/>
  <circle cx="662" cy="432" r="18" fill="#6ce7ff"/>
  <circle cx="706" cy="394" r="14" fill="#6ce7ff"/>
  <circle cx="722" cy="462" r="10" fill="#6ce7ff"/>
  <path d="M682 434L748 374" stroke="#6ce7ff" stroke-width="7" stroke-dasharray="10 10"/>
  <rect x="352" y="160" width="482" height="126" rx="18" fill="#0d1320" stroke="url(#accent)" stroke-width="5"/>
  <text x="593" y="212" fill="#eef3ff" font-size="34" text-anchor="middle" font-family="Arial, Helvetica, sans-serif" font-weight="700">IOT AUTOMATIC</text>
  <text x="593" y="254" fill="#c8d3ea" font-size="30" text-anchor="middle" font-family="Arial, Helvetica, sans-serif">PET FEEDING SYSTEM</text>
  <text x="132" y="794" fill="#c8d3ea" font-size="34" font-family="Arial, Helvetica, sans-serif">Timed feeding with smart remote control</text>
</svg>
